<svg width="16" height="16" viewBox="0 0 16 16" fill="none" xmlns="http://www.w3.org/2000/svg">
<g clip-path="url(#clip0_1_15)">
<path d="M5.026 15C11.064 15 14.367 9.99701 14.367 5.66601C14.3683 5.52534 14.3663 5.38467 14.361 5.24401C15.0038 4.77825 15.5588 4.20196 16 3.54201C15.3991 3.80628 14.7626 3.98081 14.111 4.06001C14.7976 3.64971 15.3118 3.00402 15.558 2.24301C14.9133 2.62573 14.2072 2.89402 13.471 3.03601C12.9762 2.50903 12.3214 2.15992 11.6081 2.04276C10.8948 1.9256 10.1627 2.04693 9.52534 2.38794C8.88796 2.72896 8.38081 3.27064 8.08245 3.92907C7.78409 4.5875 7.71118 5.32594 7.875 6.03001C6.56968 5.96487 5.29265 5.62592 4.12683 5.03517C2.96101 4.44442 1.93247 3.61509 1.108 2.60101C0.689581 3.32415 0.56195 4.17939 0.751007 4.99319C0.940063 5.80699 1.43165 6.51838 2.126 6.98301C1.60541 6.96619 1.09619 6.82637 0.64 6.57501V6.62001C0.641273 7.37739 0.90382 8.11114 1.38332 8.6974C1.86283 9.28366 2.52992 9.68653 3.272 9.83801C2.99027 9.91566 2.69923 9.95435 2.407 9.95301C2.20092 9.95515 1.99517 9.93605 1.793 9.89601C2.00239 10.5483 2.41078 11.1187 2.96084 11.527C3.5109 11.9354 4.17502 12.1613 4.86 12.173C3.6961 13.086 2.25925 13.5815 0.78 13.58C0.519298 13.582 0.258746 13.5669 0 13.535C1.50142 14.4925 3.24527 15.0008 5.026 15Z" fill="white"/>
</g>
<defs>
<clipPath id="clip0_1_15">
<rect width="16" height="16" fill="white"/>
</clipPath>
</defs>
</svg>
