<svg width="16" height="16" viewBox="0 0 16 16" fill="none" xmlns="http://www.w3.org/2000/svg">
<g clip-path="url(#clip0_1_11)">
<path d="M6.08 0.234002L6.259 0.961002C5.55121 1.13639 4.87369 1.41684 4.249 1.793L3.866 1.15C4.55283 0.733972 5.30007 0.42509 6.08 0.234002ZM9.92 0.234002L9.742 0.960002C10.4498 1.13539 11.1273 1.41584 11.752 1.792L12.14 1.149C11.4502 0.734053 10.7018 0.425579 9.92 0.234002ZM1.15 3.864C0.735164 4.55215 0.426366 5.29886 0.234001 6.079L0.961001 6.259C1.13639 5.55121 1.41683 4.87369 1.793 4.249L1.15 3.863V3.864ZM0.750001 8C0.748759 7.63645 0.775841 7.27335 0.831001 6.914L0.0910012 6.8C-0.0294793 7.5948 -0.0294793 8.40321 0.0910012 9.198L0.831001 9.086C0.775841 8.72666 0.748759 8.36356 0.750001 8ZM12.134 14.848L11.75 14.208C11.1269 14.5849 10.4502 14.8651 9.743 15.039L9.923 15.767C10.7019 15.5733 11.4473 15.2635 12.134 14.848ZM15.251 8C15.251 8.36467 15.2237 8.72667 15.169 9.086L15.909 9.198C16.0295 8.40321 16.0295 7.5948 15.909 6.8L15.169 6.914C15.2237 7.274 15.251 7.636 15.251 8ZM15.767 9.918L15.039 9.738C14.8638 10.4465 14.5834 11.1247 14.207 11.75L14.85 12.137C15.2656 11.4477 15.5747 10.6996 15.767 9.918ZM9.087 15.168C8.367 15.278 7.634 15.278 6.914 15.168L6.802 15.91C7.59614 16.0303 8.40386 16.0303 9.198 15.91L9.086 15.169L9.087 15.168ZM13.837 12.3C13.4052 12.8861 12.8869 13.4033 12.3 13.834L12.746 14.439C13.3925 13.9642 13.9639 13.3948 14.441 12.75L13.837 12.3ZM12.3 2.163C12.887 2.595 13.405 3.113 13.837 3.7L14.441 3.25C13.9655 2.60487 13.3959 2.03484 12.751 1.559L12.3 2.163ZM2.163 3.7C2.5946 3.11284 3.11284 2.5946 3.7 2.163L3.25 1.559C2.60487 2.03446 2.03484 2.60415 1.559 3.249L2.163 3.699V3.7ZM14.851 3.863L14.207 4.25C14.584 4.873 14.865 5.55 15.039 6.257L15.767 6.077C15.5745 5.2972 15.2657 4.55083 14.851 3.863ZM6.913 0.831002C7.63295 0.722692 8.36505 0.722692 9.085 0.831002L9.197 0.0910023C8.40286 -0.0292762 7.59514 -0.0292762 6.801 0.0910023L6.913 0.831002ZM2.547 14.64L1 15L1.36 13.451L0.631001 13.281L0.270001 14.829C0.240835 14.9532 0.243822 15.0827 0.27868 15.2054C0.313539 15.3282 0.379117 15.4399 0.469214 15.5302C0.559311 15.6205 0.670949 15.6864 0.793574 15.7215C0.916199 15.7566 1.04576 15.7599 1.17 15.731L2.718 15.374L2.547 14.64ZM0.786001 12.612L1.518 12.78L1.768 11.707C1.40279 11.0949 1.13049 10.432 0.960001 9.74L0.233001 9.92C0.396186 10.5828 0.643529 11.222 0.969001 11.822L0.786001 12.612ZM4.286 14.235L3.213 14.485L3.383 15.216L4.173 15.032C4.773 15.359 5.412 15.606 6.075 15.769L6.255 15.041C5.56452 14.8691 4.90333 14.5958 4.293 14.23L4.286 14.235ZM8 1.5C7.14641 1.50026 6.30123 1.66865 5.51271 1.99555C4.7242 2.32245 4.00779 2.80146 3.40439 3.40522C2.801 4.00899 2.32243 4.72569 1.99602 5.51441C1.66961 6.30312 1.50174 7.14841 1.502 8.002C1.50312 9.22461 1.84902 10.4221 2.5 11.457L1.875 14.125L4.54 13.5C5.99769 14.3749 7.74006 14.644 9.3938 14.2498C11.0475 13.8556 12.4811 12.8293 13.3873 11.3908C14.2935 9.95242 14.6003 8.21628 14.2419 6.5544C13.8835 4.89252 12.8885 3.43711 11.47 2.5C10.431 1.8456 9.2279 1.49889 8 1.5Z" fill="white"/>
</g>
<defs>
<clipPath id="clip0_1_11">
<rect width="16" height="16" fill="white"/>
</clipPath>
</defs>
</svg>
