<svg width="16" height="16" viewBox="0 0 16 16" fill="none" xmlns="http://www.w3.org/2000/svg">
<g clip-path="url(#clip0_1_9)">
<path d="M15.964 0.686004C16.0004 0.595141 16.0093 0.4956 15.9896 0.399724C15.9699 0.303848 15.9226 0.215852 15.8534 0.146645C15.7842 0.0774387 15.6962 0.0300652 15.6003 0.0103977C15.5044 -0.00926973 15.4049 -0.00036623 15.314 0.0360044L0.767 5.855H0.766L0.314 6.035C0.22839 6.06915 0.153886 6.1263 0.0987158 6.20013C0.043546 6.27397 0.00985817 6.36162 0.00137363 6.45339C-0.00711091 6.54517 0.00993802 6.63751 0.0506372 6.72021C0.0913363 6.8029 0.154102 6.87274 0.232 6.922L0.642 7.182L0.643 7.184L5.638 10.362L8.816 15.357L8.818 15.359L9.078 15.769C9.12742 15.8466 9.1973 15.9091 9.27993 15.9495C9.36257 15.9899 9.45476 16.0068 9.54636 15.9982C9.63796 15.9896 9.72542 15.956 9.7991 15.9009C9.87279 15.8458 9.92985 15.7714 9.964 15.686L15.964 0.686004ZM14.131 2.576L6.637 10.07L6.422 9.73201C6.38261 9.66998 6.33003 9.6174 6.268 9.578L5.93 9.363L13.424 1.869L14.602 1.398L14.131 2.576Z" fill="white"/>
</g>
<defs>
<clipPath id="clip0_1_9">
<rect width="16" height="16" fill="white"/>
</clipPath>
</defs>
</svg>
