<svg width="16" height="16" viewBox="0 0 16 16" fill="none" xmlns="http://www.w3.org/2000/svg">
<g clip-path="url(#clip0_1_7)">
<path d="M15.545 6.558C15.6384 7.09495 15.6849 7.639 15.684 8.184C15.684 10.618 14.814 12.676 13.3 14.069H13.302C11.978 15.292 10.158 16 8 16C5.87827 16 3.84344 15.1572 2.34315 13.6569C0.842855 12.1566 0 10.1217 0 8C0 5.87827 0.842855 3.84344 2.34315 2.34315C3.84344 0.84286 5.87827 4.9801e-06 8 4.9801e-06C9.98573 -0.022109 11.9032 0.723822 13.352 2.08201L11.068 4.366C10.2422 3.57926 9.14044 3.14832 8 3.166C5.913 3.166 4.14 4.574 3.508 6.47C3.1735 7.46361 3.1735 8.5394 3.508 9.533H3.511C4.146 11.426 5.916 12.834 8.003 12.834C9.081 12.834 10.007 12.558 10.725 12.07H10.722C11.139 11.7939 11.4957 11.4361 11.7705 11.0183C12.0453 10.6005 12.2326 10.1312 12.321 9.639H8V6.559L15.545 6.558Z" fill="white"/>
</g>
<defs>
<clipPath id="clip0_1_7">
<rect width="16" height="16" fill="white"/>
</clipPath>
</defs>
</svg>
